<?xml version="1.0" standalone="no"?>
<!DOCTYPE svg PUBLIC "-//W3C//DTD SVG 20010904//EN"
 "http://www.w3.org/TR/2001/REC-SVG-20010904/DTD/svg10.dtd">
<svg version="1.0" xmlns="http://www.w3.org/2000/svg"
 width="1080.000000pt" height="580.000000pt" viewBox="0 0 1080.000000 580.000000"
 preserveAspectRatio="xMidYMid meet">
<metadata>
Created by potrace 1.16, written by Peter Selinger 2001-2019
</metadata>
<g transform="translate(0.000000,580.000000) scale(0.100000,-0.100000)"
fill="#000000" stroke="none">
<path d="M2634 5778 c-4 -13 -7 -32 -8 -43 -1 -11 -5 -20 -11 -20 -5 0 -16 -4
-22 -8 -8 -5 -13 -4 -13 3 0 6 -5 8 -12 4 -6 -4 -17 0 -23 10 -11 14 -14 15
-25 1 -7 -8 -18 -15 -25 -15 -22 0 -37 -26 -23 -38 16 -13 115 -14 123 -2 3 5
12 7 20 3 8 -3 15 0 15 6 0 6 7 11 16 11 11 0 15 -6 11 -19 -4 -16 2 -20 37
-25 92 -14 181 -14 206 0 15 8 19 13 10 14 -47 1 -185 22 -190 29 -3 5 -15 11
-27 15 -26 8 -29 32 -9 59 15 19 26 22 26 7 0 -14 42 -70 52 -70 10 0 5 27
-11 61 -21 42 -105 54 -117 17z"/>
<path d="M2328 4622 l-147 -3 -21 -29 c-12 -17 -18 -34 -15 -40 4 -6 174 -10
484 -10 l477 0 22 30 c12 16 22 34 22 40 0 7 -106 10 -324 10 -178 0 -330 1
-338 3 -7 1 -79 1 -160 -1z"/>
<path d="M3312 4610 c-22 -9 -82 -118 -82 -150 0 -27 30 -60 55 -60 55 0 70
-25 40 -68 -23 -32 -60 -24 -60 14 0 27 -3 29 -40 29 -36 0 -41 -3 -58 -39
-10 -21 -17 -50 -15 -65 l3 -26 100 -2 c115 -3 126 2 163 80 42 90 25 138 -55
153 -18 3 -33 11 -33 18 0 25 32 56 57 56 22 0 25 -4 21 -25 -4 -20 -1 -26 18
-31 36 -9 59 3 77 41 21 45 22 71 1 79 -24 9 -166 6 -192 -4z"/>
<path d="M3547 4591 c-17 -35 -14 -41 26 -41 36 0 36 0 -31 -172 -27 -70 -47
-129 -44 -132 3 -3 22 -6 43 -6 l37 0 60 153 59 152 34 3 c36 3 59 24 59 54 0
16 -11 18 -114 18 l-115 0 -14 -29z"/>
<path d="M3815 4608 c-57 -157 -125 -350 -125 -358 0 -5 19 -10 43 -10 l42 0
25 68 c22 58 29 67 53 70 35 4 41 -13 22 -67 -23 -67 -21 -73 27 -69 40 3 42
5 59 53 10 28 18 69 18 93 1 23 4 42 9 42 12 0 42 78 49 127 4 33 2 47 -8 54
-23 14 -209 11 -214 -3z"/>
<path d="M4120 4602 c-22 -18 -58 -118 -97 -269 -23 -87 -16 -93 102 -93 122
0 126 3 165 150 40 146 48 209 29 221 -8 5 -51 9 -95 9 -65 0 -87 -4 -104 -18z
m115 -79 c-3 -16 -16 -66 -28 -113 -20 -74 -26 -86 -50 -94 -44 -16 -50 1 -27
75 11 35 20 70 20 77 0 7 7 28 14 47 13 29 20 35 46 35 29 0 31 -2 25 -27z"/>
<path d="M4407 4613 c-2 -5 -12 -39 -21 -78 -10 -38 -21 -86 -26 -105 -20 -79
-40 -167 -40 -179 0 -8 13 -11 42 -9 l41 3 14 60 c7 33 19 78 26 100 12 39 12
38 17 -52 3 -51 10 -97 16 -103 6 -6 35 -10 65 -8 l54 3 11 65 c7 36 19 103
28 150 9 47 20 102 23 123 l6 37 -41 0 c-46 0 -44 4 -62 -105 -19 -105 -26
-106 -33 -5 -4 50 -9 96 -13 101 -6 11 -101 12 -107 2z"/>
<path d="M4748 4613 c-21 -5 -44 -62 -53 -133 -4 -30 -13 -84 -21 -120 -17
-82 -17 -85 2 -104 24 -24 195 -23 217 2 15 17 37 112 37 164 0 27 -1 28 -55
28 -45 0 -56 -4 -65 -21 -14 -25 -6 -49 15 -49 17 0 20 -23 5 -51 -7 -12 -21
-19 -41 -19 l-31 0 7 70 c4 38 12 91 19 117 11 44 15 48 44 51 28 3 32 0 32
-22 0 -27 6 -30 50 -26 31 3 40 15 40 62 0 27 -5 40 -19 48 -19 10 -149 12
-183 3z"/>
<path d="M5160 4602 c-18 -15 -23 -31 -27 -93 -3 -41 -10 -80 -16 -87 -5 -7
-12 -43 -15 -82 -6 -94 0 -100 117 -100 80 0 93 2 111 22 13 14 20 35 20 60 0
32 4 39 26 44 21 5 25 11 22 38 -2 24 -8 31 -25 31 -32 1 -33 4 -17 65 18 70
18 76 -6 100 -28 28 -157 29 -190 2z"/>
<path d="M5577 4613 c-4 -3 -7 -89 -7 -190 l0 -183 75 0 c96 0 139 17 162 65
15 31 15 41 4 78 -7 23 -12 77 -11 119 2 107 -9 118 -128 118 -49 0 -92 -3
-95 -7z"/>
<path d="M5877 4605 c-18 -13 -19 -26 -13 -171 7 -198 5 -194 130 -194 129 1
130 2 122 137 -15 241 -16 243 -138 243 -55 -1 -89 -5 -101 -15z m145 -170 c4
-60 4 -113 2 -117 -10 -16 -53 -8 -64 11 -5 11 -10 65 -10 121 l0 101 33 -3
32 -3 7 -110z"/>
<path d="M6164 4518 c9 -139 22 -253 30 -267 7 -11 187 -17 198 -6 3 3 2 20
-1 37 -6 31 -8 32 -58 33 -28 0 -54 3 -57 6 -6 6 -12 53 -32 247 l-5 52 -41 0
-41 0 7 -102z"/>
<path d="M6380 4603 c0 -10 5 -52 11 -93 6 -41 16 -118 23 -170 l11 -95 89 -3
c68 -2 94 1 113 13 42 28 46 52 28 150 -9 50 -20 110 -25 134 -12 70 -33 81
-151 81 -88 0 -99 -2 -99 -17z m171 -98 c4 -22 10 -72 14 -111 l7 -71 -27 -5
c-20 -4 -29 -1 -36 16 -12 27 -36 189 -31 205 2 7 17 11 35 9 28 -3 32 -7 38
-43z"/>
<path d="M6797 4613 c-5 -9 66 -344 77 -362 4 -6 25 -11 47 -11 45 0 46 3 24
86 -8 31 -12 61 -9 65 3 5 27 9 55 9 41 0 49 3 49 18 0 37 -26 56 -81 62 -52
5 -54 6 -57 38 l-3 32 55 0 c60 0 71 8 62 46 -6 24 -8 24 -111 24 -57 0 -106
-3 -108 -7z"/>
<path d="M7056 4604 c-19 -19 -20 -6 3 -95 74 -285 62 -270 206 -266 l100 2 3
32 c2 18 -8 66 -21 105 -14 40 -35 105 -46 144 -25 86 -39 94 -151 94 -58 0
-83 -4 -94 -16z m168 -116 c10 -35 24 -82 33 -106 8 -23 13 -49 10 -57 -6 -13
-51 -14 -65 -1 -10 11 -61 209 -56 218 3 5 18 8 33 8 25 0 29 -5 45 -62z"/>
<path d="M7351 4611 c-18 -11 -13 -35 40 -204 52 -166 53 -167 188 -167 119 0
121 4 76 131 -87 249 -87 249 -209 249 -44 0 -87 -4 -95 -9z m191 -175 c21
-60 35 -112 32 -117 -8 -13 -52 -11 -61 4 -10 17 -72 199 -73 215 0 9 11 12
32 10 32 -3 34 -5 70 -112z"/>
<path d="M7630 4605 c0 -8 27 -86 61 -172 33 -87 63 -166 66 -175 5 -15 18
-18 92 -18 114 0 135 13 128 79 -6 58 -81 237 -115 274 -25 26 -29 27 -129 27
-85 0 -103 -3 -103 -15z m219 -168 c46 -114 46 -129 -3 -120 -19 4 -30 25 -64
112 -23 59 -42 111 -42 115 0 4 14 6 32 4 31 -3 34 -7 77 -111z"/>
<path d="M8010 4614 c0 -4 9 -22 21 -40 l21 -34 479 0 c332 0 479 3 479 11 0
15 -21 53 -34 61 -13 9 -966 11 -966 2z"/>
<path d="M1675 4443 c-14 -15 -25 -33 -25 -40 0 -10 144 -13 700 -13 l699 0
16 30 c8 16 15 34 15 40 0 7 -215 10 -690 10 l-689 0 -26 -27z"/>
<path d="M8077 4464 c-12 -12 23 -64 47 -70 33 -8 1363 -1 1371 8 11 10 -24
55 -48 62 -30 8 -1362 8 -1370 0z"/>
<path d="M2031 4284 c-12 -15 -21 -31 -21 -35 0 -5 218 -9 484 -9 l484 0 16
25 c9 13 16 29 16 35 0 7 -156 10 -479 10 l-480 0 -20 -26z"/>
<path d="M8140 4302 c0 -4 6 -20 13 -35 l12 -27 481 0 c264 0 484 3 487 6 4 4
-3 20 -14 35 l-20 29 -480 0 c-263 0 -479 -4 -479 -8z"/>
<path d="M2715 4110 l-140 -5 2 -28 c3 -40 16 -52 60 -55 21 -2 41 -6 44 -10
4 -4 10 -203 13 -442 3 -239 9 -627 12 -861 l7 -426 -48 -13 c-39 -11 -50 -19
-62 -47 -7 -19 -11 -38 -9 -42 8 -12 248 -1 265 12 7 6 20 12 30 14 44 8 559
70 636 76 18 2 20 11 25 107 3 58 3 149 1 203 l-3 97 -39 0 c-38 0 -38 0 -55
-60 -22 -78 -52 -104 -136 -119 -80 -14 -307 -36 -312 -30 -2 2 -6 136 -10
297 -5 231 -4 293 6 297 7 2 57 6 111 9 102 6 130 0 155 -36 9 -12 26 -18 53
-18 l39 0 -2 168 -3 167 -33 3 c-27 3 -40 -3 -67 -31 -38 -39 -70 -47 -186
-47 l-76 0 -5 48 c-3 26 -7 158 -8 293 l-2 246 93 6 c273 20 332 2 364 -108
21 -71 27 -77 66 -73 l34 3 0 193 c0 107 -2 198 -5 202 -6 10 -607 17 -815 10z"/>
<path d="M1387 4103 c-4 -3 -7 -21 -7 -39 0 -30 4 -34 38 -43 73 -20 70 -13
76 -246 3 -115 9 -347 12 -515 3 -168 7 -318 9 -335 2 -16 6 -211 10 -432 l7
-402 -41 -25 c-22 -14 -45 -26 -51 -26 -15 0 -24 -51 -13 -69 13 -19 12 -19
138 8 55 12 139 29 187 38 82 15 89 15 106 0 20 -18 32 -13 32 12 0 12 27 21
123 39 275 52 298 63 337 171 22 59 22 70 18 385 l-4 324 -48 82 c-54 93 -55
80 12 215 l35 70 -6 305 c-4 278 -7 310 -26 361 -21 54 -55 96 -98 118 -24 12
-834 16 -846 4z m671 -260 c5 -10 12 -147 16 -304 6 -269 5 -287 -12 -302 -15
-14 -43 -18 -143 -20 l-124 -2 -5 310 c-3 171 -3 316 -1 323 2 9 37 12 132 12
112 0 129 -2 137 -17z m10 -865 c27 -35 25 -118 -4 -118 -20 0 -17 -17 4 -22
16 -5 20 -20 25 -119 11 -187 10 -200 -14 -206 -21 -6 -21 -7 -3 -20 14 -10
19 -26 19 -63 0 -61 -15 -78 -77 -86 -41 -6 -47 -4 -53 15 -9 29 -25 27 -25
-3 0 -31 -3 -32 -71 -41 l-57 -7 -1 108 c-1 60 3 124 9 143 7 25 6 38 -2 49
-8 9 -13 75 -16 187 l-4 173 63 10 c96 14 195 14 207 0z"/>
<path d="M3827 4103 c-12 -11 -8 -51 5 -60 7 -4 31 -13 53 -18 34 -9 40 -16
47 -45 4 -19 10 -369 13 -778 7 -714 6 -744 -12 -764 -10 -11 -35 -29 -55 -39
-21 -11 -38 -23 -39 -27 0 -4 -2 -17 -5 -29 -4 -23 -2 -23 89 -23 51 0 128 4
172 9 44 6 117 13 163 16 l83 7 -3 31 c-3 28 -7 32 -41 38 -70 11 -68 -3 -65
373 l3 339 90 -75 c238 -198 338 -378 311 -561 -6 -38 -12 -48 -37 -59 -32
-14 -49 -52 -31 -70 7 -7 57 -8 158 -2 l147 9 24 100 c33 137 21 231 -45 362
-21 40 -109 173 -121 183 -4 3 -21 24 -39 46 -33 43 -40 64 -21 64 6 0 28 12
50 28 71 50 73 63 65 464 -7 312 -9 355 -26 387 -22 44 -56 76 -93 90 -31 12
-829 16 -840 4z m667 -219 c14 -13 16 -55 16 -309 0 -269 -1 -293 -17 -300
-23 -9 -151 -34 -220 -42 l-53 -5 0 336 0 336 129 0 c104 0 133 -3 145 -16z"/>
<path d="M5140 4077 c0 -33 2 -35 53 -48 l52 -14 0 -765 0 -764 -50 -26 c-39
-20 -50 -31 -50 -50 l0 -25 245 0 245 0 0 30 c0 26 -4 30 -44 40 -28 7 -47 18
-52 30 -11 27 -11 653 0 659 17 11 207 -164 271 -249 91 -121 130 -219 130
-325 0 -72 -15 -105 -57 -121 -19 -7 -24 -15 -21 -37 l3 -27 155 -3 156 -2 22
92 c12 51 22 116 22 144 0 105 -78 276 -192 420 -37 47 -68 88 -68 90 0 1 16
11 35 20 19 9 48 32 65 50 l30 35 1 327 c0 180 0 347 -1 372 -2 58 -31 112
-77 147 l-36 28 -419 3 -418 3 0 -34z m667 -189 c19 -15 19 -581 0 -596 -7 -6
-47 -16 -88 -22 -40 -6 -98 -15 -126 -21 -29 -6 -57 -8 -63 -4 -13 8 -14 652
0 657 23 8 266 -4 277 -14z"/>
<path d="M6673 4094 c-9 -25 9 -46 55 -63 29 -10 42 -21 42 -34 0 -18 -41
-210 -60 -277 -5 -19 -21 -87 -36 -150 -39 -172 -104 -441 -114 -475 -5 -16
-26 -104 -46 -195 -64 -289 -84 -374 -95 -402 -10 -24 -80 -68 -109 -68 -5 0
-10 -11 -10 -25 0 -17 7 -28 23 -34 13 -5 126 -12 252 -17 l228 -7 -7 28 c-9
35 -29 55 -56 55 -41 0 -39 26 26 300 19 80 39 162 46 183 l11 37 86 0 c47 0
116 -3 154 -7 57 -5 67 -9 67 -25 0 -10 11 -71 25 -136 14 -64 32 -151 41
-192 8 -41 20 -91 25 -111 14 -58 12 -69 -16 -69 -32 0 -67 -35 -63 -63 3 -19
10 -22 58 -24 30 -2 107 -8 170 -14 245 -23 259 -23 266 -4 10 24 -5 45 -47
66 -52 28 -76 62 -87 126 -6 32 -20 101 -32 153 -12 52 -25 118 -30 145 -5 28
-16 82 -25 120 -9 39 -20 90 -25 115 -6 25 -21 97 -35 160 -14 63 -34 156 -45
205 -11 50 -29 133 -40 185 -12 52 -27 127 -35 165 -8 39 -23 110 -34 159 -10
49 -17 95 -14 102 3 7 23 19 46 27 45 15 63 36 54 61 -6 14 -38 16 -307 16
-269 0 -301 -2 -307 -16z m349 -349 c10 -82 22 -181 28 -220 23 -164 24 -196
6 -189 -12 4 -16 0 -16 -15 0 -23 16 -29 23 -8 7 19 29 -98 25 -135 l-3 -33
-115 3 c-63 2 -116 5 -118 6 -1 2 2 39 8 82 42 320 66 507 76 594 8 69 10 72
42 68 27 -3 27 -3 44 -153z"/>
<path d="M7882 4100 c-12 -5 -34 -22 -47 -37 -54 -61 -54 -61 -56 -891 -2
-858 -7 -800 70 -861 58 -46 93 -57 241 -75 74 -9 142 -19 150 -23 8 -3 33 -7
55 -9 22 -2 100 -11 174 -19 73 -9 135 -14 138 -12 2 3 6 99 9 214 l6 210 -33
5 c-47 7 -51 4 -73 -48 -28 -69 -62 -104 -99 -104 -73 -1 -343 34 -356 45 -11
11 -11 59 -2 286 5 151 9 315 9 364 -1 50 -1 235 0 411 l2 322 38 3 c20 2 106
2 191 -1 l154 -5 30 -37 c17 -21 40 -66 52 -100 21 -60 23 -63 57 -66 45 -4
45 -7 44 239 l-1 194 -365 2 c-205 1 -375 -2 -388 -7z"/>
<path d="M9035 4096 c-36 -16 -72 -56 -91 -101 -18 -44 -41 -1705 -24 -1750
16 -42 66 -101 107 -126 39 -24 155 -61 190 -60 11 0 63 -9 115 -20 283 -61
311 -59 384 36 24 31 26 44 34 197 5 90 14 497 20 905 12 782 12 788 -33 863
-42 72 -28 70 -367 69 -232 0 -312 -3 -335 -13z m473 -241 c2 -1 -2 -229 -8
-506 -5 -277 -10 -625 -10 -774 0 -148 -4 -276 -9 -284 -7 -11 -13 -12 -23 -3
-8 6 -23 9 -34 6 -11 -3 -53 2 -94 10 -41 9 -87 16 -101 16 -15 0 -31 6 -37
13 -7 8 -7 180 -1 542 5 292 10 629 11 750 2 121 6 225 10 231 5 7 55 9 150 6
79 -2 144 -5 146 -7z"/>
<path d="M5905 2222 c6 -6 80 -34 165 -62 85 -29 216 -74 291 -101 74 -27 151
-49 170 -49 19 0 153 14 299 30 146 16 273 30 283 30 9 0 17 4 17 8 0 8 -52
16 -275 42 -49 6 -106 15 -125 20 -19 5 -96 14 -170 20 -74 6 -155 15 -180 20
-25 5 -81 11 -125 14 -88 5 -257 22 -320 32 -27 4 -37 3 -30 -4z"/>
<path d="M5365 2213 c-22 -2 -68 -8 -102 -13 -34 -6 -106 -15 -160 -20 -54 -5
-174 -19 -268 -30 -93 -12 -217 -25 -275 -31 -58 -5 -129 -14 -159 -19 -30 -6
-70 -10 -88 -10 -18 0 -33 -4 -33 -9 0 -4 55 -14 123 -20 67 -7 204 -21 305
-32 l182 -20 73 26 c39 15 140 49 222 76 83 28 159 54 170 59 11 5 47 18 80
29 l60 20 -45 -1 c-25 -1 -63 -3 -85 -5z"/>
<path d="M5575 2165 c-60 -30 -116 -55 -122 -55 -7 0 -13 -4 -13 -10 0 -5 -4
-10 -10 -10 -5 0 -58 -23 -117 -51 -167 -79 -193 -92 -193 -100 0 -13 560
-279 586 -279 7 0 64 24 126 54 62 29 149 70 193 91 44 20 117 54 162 76 46
21 89 39 98 39 21 0 19 29 -2 36 -35 12 -169 73 -383 177 -133 64 -188 87
-204 86 -6 0 -60 -25 -121 -54z"/>
<path d="M2955 1983 c-16 -2 -88 -12 -160 -23 -71 -11 -164 -24 -205 -30 -41
-6 -115 -17 -165 -25 -49 -7 -128 -18 -175 -24 -47 -7 -122 -17 -166 -23 -45
-6 -100 -8 -123 -5 -30 4 -41 2 -41 -8 0 -9 -29 -17 -87 -25 -49 -7 -92 -17
-98 -23 -10 -9 28 -8 415 13 632 34 761 41 890 51 80 7 244 12 365 13 121 1
204 3 185 6 -27 4 -16 7 45 13 102 9 558 37 608 37 21 0 36 4 33 8 -3 5 -88
12 -188 15 -101 4 -302 11 -448 16 -313 12 -643 19 -685 14z"/>
<path d="M7955 1978 c-159 -4 -379 -12 -487 -17 -109 -6 -239 -11 -290 -11
-164 0 -84 -20 123 -30 205 -11 389 -27 397 -35 3 -3 -1 -5 -8 -5 -11 0 -11
-3 -2 -12 10 -10 15 -10 22 2 17 28 377 12 406 -18 15 -14 17 -14 26 1 8 15
20 17 76 13 37 -3 146 -10 242 -16 96 -5 249 -15 340 -20 291 -18 552 -31 568
-28 8 2 -72 17 -179 35 -660 110 -821 135 -879 141 -36 4 -195 4 -355 0z"/>
<path d="M3790 1408 c0 -30 -11 -45 -35 -49 -29 -6 -34 -59 -6 -66 27 -7 27
-29 1 -43 -23 -12 -26 -41 -8 -69 9 -15 9 -26 -1 -47 -14 -32 -2 -46 38 -42
19 2 27 12 35 42 16 57 39 60 34 5 -3 -39 -1 -44 20 -47 33 -5 52 15 52 54 0
28 4 33 28 36 37 4 43 44 10 70 l-23 18 25 19 c23 18 24 22 12 53 -6 19 -12
47 -12 62 0 25 -3 27 -32 24 -28 -2 -34 -8 -38 -32 -8 -44 -30 -45 -30 -2 0
34 -2 36 -35 36 -30 0 -35 -3 -35 -22z"/>
<path d="M4019 1413 c-10 -12 -14 -51 -14 -147 0 -72 3 -139 7 -148 6 -15 21
-18 92 -18 96 0 107 7 101 70 -2 19 -4 38 -4 43 -1 4 -17 7 -36 7 -32 0 -35
-2 -35 -30 0 -25 -4 -30 -25 -30 l-25 0 0 100 c0 99 0 100 24 100 18 0 25 -6
28 -22 2 -19 9 -23 38 -23 32 0 35 3 38 33 2 19 -4 44 -13 58 -14 22 -22 24
-89 24 -56 0 -77 -4 -87 -17z"/>
<path d="M4255 1416 c-17 -12 -20 -30 -23 -135 -3 -83 0 -131 8 -152 l13 -30
86 3 86 3 3 149 c2 101 -1 153 -9 162 -16 19 -138 19 -164 0z"/>
<path d="M4479 1376 c-1 -31 -2 -104 -2 -163 l-2 -108 35 0 c33 0 35 2 36 35
2 103 6 108 23 35 l16 -70 42 -3 c39 -3 42 -1 52 30 5 18 14 51 18 73 8 38 8
37 13 -30 l5 -70 33 -3 33 -3 -3 163 -3 163 -42 3 c-47 3 -41 16 -79 -151 -9
-43 -21 -74 -25 -70 -5 5 -19 56 -32 113 l-24 105 -46 3 -47 3 -1 -55z"/>
<path d="M4837 1424 c-4 -4 -7 -79 -7 -166 l0 -158 35 0 35 0 -2 163 -3 162
-25 3 c-14 2 -29 0 -33 -4z"/>
<path d="M4957 1423 c-4 -3 -7 -78 -7 -165 l0 -158 73 0 c64 0 76 3 95 23 20
21 22 34 22 155 0 120 -2 132 -19 142 -22 11 -154 14 -164 3z"/>
<path d="M5236 1418 c-9 -25 -56 -280 -56 -299 0 -14 7 -19 29 -19 23 0 31 6
40 30 7 22 16 30 35 30 19 0 25 -6 28 -27 3 -24 8 -29 37 -31 l33 -3 -6 54
c-4 30 -17 103 -29 163 l-22 109 -43 3 c-28 2 -44 -1 -46 -10z"/>
<path d="M5566 1421 c-5 -8 -66 -297 -66 -313 0 -4 15 -8 34 -8 29 0 34 4 40
31 5 26 10 30 33 27 20 -2 29 -10 33 -28 4 -19 13 -26 38 -28 39 -4 39 -5 11
142 -38 195 -34 186 -79 186 -21 0 -41 -4 -44 -9z"/>
<path d="M5740 1275 c0 -85 0 -158 0 -162 0 -5 15 -8 33 -8 32 0 32 1 35 53 3
47 5 52 27 52 22 0 24 -5 27 -52 l3 -53 35 0 35 0 -4 55 c-2 30 -2 96 -1 146
2 118 -3 124 -111 124 l-79 0 0 -155z"/>
<path d="M5960 1396 c0 -30 3 -35 28 -38 l27 -3 3 -127 3 -128 34 0 34 0 3
128 3 127 28 3 c24 3 27 8 27 38 l0 34 -95 0 -95 0 0 -34z"/>
<path d="M6168 1408 c-3 -13 -4 -45 -3 -73 2 -27 4 -92 4 -142 l1 -93 91 0 90
0 -3 28 c-3 25 -7 27 -53 32 -48 5 -50 6 -50 35 0 28 3 30 43 33 42 3 43 4 40
35 -3 29 -7 32 -43 37 -35 4 -40 8 -40 30 0 23 5 25 50 30 48 5 50 6 50 35 l0
30 -86 3 c-83 3 -87 2 -91 -20z"/>
<path d="M6390 1420 c-11 -7 -15 -27 -15 -76 0 -60 3 -68 28 -90 16 -13 38
-24 50 -24 33 0 49 -15 45 -41 -4 -33 -35 -37 -47 -6 -11 28 -55 41 -72 21 -7
-9 -9 -31 -5 -59 l7 -45 89 0 c71 0 89 3 94 16 10 25 7 114 -4 135 -12 22 -61
49 -90 49 -16 0 -20 6 -20 30 0 39 36 42 50 4 8 -20 16 -25 38 -22 24 3 27 7
30 46 5 62 -8 72 -92 72 -39 0 -78 -5 -86 -10z"/>
<path d="M6649 1428 c0 -2 -2 -14 -5 -28 -2 -14 -16 -85 -30 -159 -14 -73 -24
-135 -22 -136 4 -4 39 -8 59 -6 10 1 19 13 23 32 5 25 10 30 28 27 17 -2 24
-11 26 -30 3 -25 7 -28 42 -28 39 0 39 0 37 36 -1 22 3 39 11 41 8 3 12 -8 12
-36 0 -40 1 -41 35 -41 l35 0 0 50 c0 76 18 67 35 -17 5 -28 10 -31 46 -35 22
-2 45 0 52 4 9 5 12 53 12 165 l0 158 -35 0 -35 0 -5 -79 -5 -79 -19 82 -19
81 -49 0 -48 0 0 -70 c0 -59 -3 -71 -20 -80 -30 -16 -37 -7 -45 57 -10 83 -18
93 -70 93 -25 0 -45 -1 -46 -2z"/>
<path d="M7137 1423 c-3 -5 -12 -46 -22 -93 -9 -47 -21 -94 -25 -105 -5 -11
-8 -27 -8 -35 0 -8 -3 -32 -7 -52 l-7 -38 39 0 c34 0 40 4 50 31 15 39 47 37
51 -4 3 -24 7 -27 42 -27 l40 0 -4 54 c-2 30 -7 59 -10 64 -3 6 -13 45 -21 89
-9 43 -18 88 -21 101 -4 19 -11 22 -49 22 -24 0 -46 -3 -48 -7z"/>
<path d="M7317 1424 c-4 -4 -7 -78 -7 -165 l0 -157 76 -4 c78 -3 91 2 90 37
-1 16 -9 21 -43 23 l-42 3 -3 132 -3 132 -30 3 c-17 2 -34 0 -38 -4z"/>
<path d="M1897 908 c8 -43 17 -48 85 -48 44 0 59 -4 68 -17 10 -17 10 -17 20
0 15 23 26 22 52 -8 25 -28 48 -33 48 -9 0 11 -6 15 -19 11 -13 -3 -18 -1 -15
8 3 8 18 12 37 11 18 -2 67 -4 110 -5 72 -1 78 -3 89 -26 15 -33 26 -32 30 3
3 25 6 27 40 24 21 -2 43 0 49 3 22 14 330 17 445 5 102 -11 137 -10 123 4
-13 14 -164 28 -289 28 -80 0 -282 -1 -450 -1 -168 -1 -326 -1 -352 -1 -40 0
-47 3 -50 22 -2 12 -9 23 -15 26 -9 2 -11 -5 -6 -30z"/>
<path d="M2278 698 c6 -7 13 -31 17 -52 8 -38 7 -39 -19 -34 -18 4 -29 0 -35
-10 -7 -13 -28 -16 -105 -17 l-96 0 0 -26 c0 -26 2 -27 38 -19 20 5 60 11 87
14 28 2 75 8 106 11 37 5 59 3 63 -4 4 -6 16 -11 27 -11 11 0 34 -7 50 -16 22
-11 34 -12 43 -5 20 17 314 20 328 4 6 -8 15 -10 22 -4 17 14 121 8 118 -6 -1
-7 2 -13 8 -13 5 0 10 4 10 10 0 5 7 7 15 4 9 -4 15 0 15 8 0 16 69 18 105 3
10 -5 49 -9 86 -9 66 0 67 0 83 -34 9 -18 14 -37 11 -42 -3 -5 -1 -11 5 -15 5
-3 10 1 10 9 0 10 9 16 21 16 14 0 19 5 16 13 -12 31 11 42 87 41 41 0 73 3
70 7 -2 4 23 6 57 5 33 -2 64 -8 68 -14 8 -13 212 -21 208 -8 -3 8 -21 12 -92
18 -11 1 -38 0 -60 -3 -33 -3 -40 -1 -44 16 -6 35 -30 43 -121 39 -47 -2 -113
2 -148 8 -46 9 -65 9 -70 1 -10 -16 -29 -18 -98 -9 -61 8 -62 8 -75 48 -12 37
-11 42 6 54 10 8 17 15 14 17 -11 10 -69 15 -70 7 -1 -6 -2 -16 -3 -22 -1 -7
5 -19 14 -25 11 -9 12 -15 3 -21 -6 -4 -16 -19 -21 -33 l-10 -25 -264 1 c-144
1 -289 5 -322 10 -52 7 -60 11 -71 39 -9 20 -10 37 -4 48 5 9 9 19 9 22 0 10
-39 6 -45 -4 -4 -6 -12 -4 -21 5 -19 19 -41 21 -26 3z"/>
<path d="M3294 405 c3 -32 -9 -55 -28 -55 -6 0 -4 5 4 11 13 9 13 10 0 6 -9
-2 -16 -18 -18 -38 -7 -65 -21 -71 -157 -65 -106 5 -278 7 -294 4 -3 -1 -24 2
-45 7 -26 5 -46 4 -59 -4 -11 -8 -34 -10 -56 -6 -63 10 -161 13 -161 4 0 -18
43 -29 139 -35 56 -4 101 -10 101 -14 0 -16 61 -20 83 -5 18 12 42 13 127 6
58 -4 114 -12 124 -16 16 -7 18 -5 13 8 -5 14 0 17 24 17 24 0 30 -4 25 -15
-3 -8 -1 -15 3 -15 5 0 11 7 15 15 3 8 17 15 32 15 19 0 25 -4 20 -15 -4 -12
0 -14 22 -9 36 9 40 14 11 14 -17 0 -20 3 -10 9 7 5 21 6 31 4 10 -3 20 2 23
11 8 20 37 21 37 1 0 -8 11 -17 25 -21 14 -3 25 -9 25 -13 0 -8 87 2 96 11 3
3 -2 13 -11 22 -12 12 -27 14 -56 10 -31 -5 -39 -3 -39 8 0 9 -7 22 -16 29
-12 10 -15 25 -12 61 3 31 0 55 -8 66 -11 15 -13 14 -10 -13z"/>
<path d="M2380 218 c-1 -23 -1 -23 -16 -3 -11 14 -18 16 -21 8 -5 -14 -39 -18
-47 -5 -10 17 -110 11 -151 -8 -22 -10 -41 -14 -43 -9 -2 5 -10 9 -18 9 -9 0
-12 -5 -8 -12 5 -7 3 -8 -7 -2 -19 12 -109 14 -109 2 0 -5 7 -11 15 -14 8 -4
15 -15 15 -25 0 -11 7 -19 16 -19 9 0 12 -5 8 -11 -6 -11 -22 1 -81 63 -9 9
-22 14 -29 11 -8 -3 -40 -6 -71 -7 -70 -1 -78 -18 -18 -34 32 -8 49 -19 57
-37 13 -29 8 -38 -15 -29 -9 3 -13 12 -10 20 3 9 -2 14 -16 14 -12 0 -21 -4
-21 -10 0 -5 5 -10 10 -10 6 0 10 -8 10 -18 0 -13 8 -17 33 -17 25 0 31 -4 29
-17 -2 -11 3 -18 13 -18 8 0 15 -9 15 -20 0 -16 7 -20 38 -20 38 0 38 0 34 38
-3 34 -2 36 12 18 8 -10 19 -15 25 -11 6 3 16 -5 23 -19 15 -33 38 -34 38 -1
0 14 4 25 10 25 5 0 7 13 4 30 -4 20 -2 30 5 30 7 0 10 3 8 8 -3 4 1 13 9 20
12 11 14 9 14 -7 0 -11 -4 -23 -10 -26 -5 -3 -9 -14 -9 -23 1 -15 2 -15 6 1 6
24 19 21 28 -5 6 -20 8 -20 12 -6 2 10 10 18 16 18 7 1 1 7 -12 14 -16 9 -20
15 -12 21 7 4 21 -1 31 -10 18 -16 20 -16 26 -1 3 9 10 16 16 16 5 0 6 -4 3
-10 -3 -5 3 -10 14 -10 27 0 27 -26 1 -33 -11 -3 -19 -11 -18 -19 2 -9 -6 -12
-24 -10 -25 3 -27 1 -19 -20 7 -21 15 -23 85 -26 62 -2 76 0 76 12 0 9 -9 20
-21 26 -16 9 -18 14 -8 26 9 11 8 14 -5 14 -11 0 -14 5 -10 12 4 6 -1 17 -11
24 -16 12 -17 14 -2 20 21 8 22 24 3 24 -8 0 -17 4 -21 10 -3 5 7 8 25 7 25
-2 30 -6 30 -27 0 -35 15 -57 24 -35 3 9 6 26 6 38 0 18 -2 19 -10 7 -8 -12
-10 -9 -10 12 0 20 4 26 15 22 8 -4 15 -12 15 -20 0 -8 5 -15 10 -15 6 -1 14
-2 19 -3 5 0 13 -4 17 -8 10 -11 44 -10 44 1 0 5 -13 14 -30 20 -29 10 -34 18
-31 54 1 9 -3 17 -8 17 -6 0 -11 -10 -11 -22z"/>
</g>
</svg>
